<svg t="1729155167031" class="icon" viewBox="-128 -128 1280 1280" version="1.1" xmlns="http://www.w3.org/2000/svg" p-id="1471" xmlns:xlink="http://www.w3.org/1999/xlink" width="200" height="200">
    <path d="M512 0C229.12 0 0 229.12 0 512s229.12 512 512 512 512-229.12 512-512S794.88 0 512 0z m316.16 268.8L510.72 535.04 194.56 268.8h633.6zM165.12 706.56V316.16c0-3.84 1.28-6.4 1.28-8.96l212.48 183.04L166.4 714.24c0-2.56-1.28-5.12-1.28-7.68zM828.16 755.2H194.56c-2.56 0-5.12-1.28-6.4-1.28L409.6 512l92.16 72.96c2.56 2.56 6.4 3.84 8.96 3.84 3.84 0 6.4-1.28 8.96-3.84L601.6 512l232.96 241.92c-2.56 0-3.84 1.28-6.4 1.28z m28.16-48.64c0 2.56-1.28 5.12-1.28 7.68L629.76 490.24 855.04 307.2c1.28 2.56 1.28 6.4 1.28 8.96v390.4z" p-id="1472"></path>
</svg>
